<svg height="512" viewBox="0 0 56 60" width="512" xmlns="http://www.w3.org/2000/svg">
	<g id="Page-1" fill="#ffc451" fill-rule="evenodd">
		<g id="052---Monitoring-Training-Routine" fill="#ffc451" fill-rule="nonzero" transform="translate(-1 -1)">
			<path id="Shape" d="m53 12h-6.029c-.1386536-1.7002994-1.3452379-3.12326457-3-3.538l-1.341-.336c-.9700404-.2457859-1.6444465-1.12540995-1.63-2.126.0056757-2.62768918-2.0235926-4.81140926-4.6446435-4.99815683-2.621051-.18674758-4.939425 1.6872068-5.3063565 4.28915683-.0406585.2897945-.0570487.5824779-.049.875.0233647.8999937-.5808132 1.69573004-1.454 1.915l-1.519.381c-1.6547621.41473543-2.8613464 1.8377006-3 3.538h-6.027c-2.209139 0-4 1.790861-4 4v8c0 .5522847.4477153 1 1 1s1-.4477153 1-1v-8c0-1.1045695.8954305-2 2-2h1v10c0 .5522847.4477153 1 1 1s1-.4477153 1-1v-10h3v1c0 1.6568542 1.3431458 3 3 3h16c1.6568542 0 3-1.3431458 3-3v-1h3v39h-18c-.5522847 0-1 .4477153-1 1s.4477153 1 1 1h18c1.1045695 0 2-.8954305 2-2v-39h1c1.1045695 0 2 .8954305 2 2v41c0 1.1045695-.8954305 2-2 2h-26c-.5522847 0-1 .4477153-1 1s.4477153 1 1 1h26c2.209139 0 4-1.790861 4-4v-41c0-2.209139-1.790861-4-4-4zm-8 3c0 .5522847-.4477153 1-1 1h-16c-.5522847 0-1-.4477153-1-1v-2.658c-.0007793-.9183953.6240171-1.7192894 1.515-1.942l1.519-.38c1.783817-.45212998 3.0158582-2.08045145 2.966-3.92-.0051721-.18015845.0045275-.36043653.029-.539.1994852-1.32880404 1.2547622-2.36490897 2.587-2.54.1274937-.01432985.2557039-.02134134.384-.021.7317104-.00241238 1.4385587.26537096 1.985.752.6488129.57565499 1.0185854 1.4026339 1.015 2.27-.0090562 1.91153846 1.2899856 3.58149915 3.145 4.043l1.341.336c.8902238.2230087 1.5144347 1.0232685 1.514 1.941z" />
			<path id="Shape" d="m36 9c.5522847 0 1-.44771525 1-1v-2c0-.55228475-.4477153-1-1-1s-1 .44771525-1 1v2c0 .55228475.4477153 1 1 1z" />
			<path id="Shape" d="m40 12h-8c-.5522847 0-1 .4477153-1 1s.4477153 1 1 1h8c.5522847 0 1-.4477153 1-1s-.4477153-1-1-1z" />
			<path id="Shape" d="m26.5 27c-1.610734-.0080861-3.0210912 1.0790892-3.4232658 2.6388279-.4021746 1.5597388.3066384 3.1933366 1.7204542 3.9651228 1.4138159.7717863 3.1712316.4844749 4.2656576-.6973715 1.094426-1.1818465 1.2461024-2.9561215.368154-4.3065792l1.661-1.9c.8957786.401286 1.9202214.401286 2.816 0l1.661 1.9c-.9547153 1.4628315-.6846772 3.4056413.6327897 4.5526541s3.2789537 1.1470128 4.5964206 0 1.587505-3.0898226.6327897-4.5526541l1.661-1.9c.4431828.1973843.9228492.2995859 1.408.3 1.610734.0080861 3.0210912-1.0790892 3.4232658-2.6388279.4021746-1.5597388-.3066384-3.1933366-1.7204542-3.9651228-1.4138159-.7717863-3.1712316-.4844749-4.2656576.6973715-1.094426 1.1818465-1.2461024 2.9561215-.368154 4.3065792l-1.661 1.9c-.8957786-.401286-1.9202214-.401286-2.816 0l-1.661-1.9c.9547153-1.4628315.6846772-3.4056413-.6327897-4.5526541s-3.2789537-1.1470128-4.5964206 0-1.587505 3.0898226-.6327897 4.5526541l-1.661 1.9c-.4431828-.1973843-.9228492-.2995859-1.408-.3zm0 5c-.8284271 0-1.5-.6715729-1.5-1.5s.6715729-1.5 1.5-1.5 1.5.6715729 1.5 1.5-.6715729 1.5-1.5 1.5zm18-10c.8284271 0 1.5.6715729 1.5 1.5s-.6715729 1.5-1.5 1.5-1.5-.6715729-1.5-1.5.6715729-1.5 1.5-1.5zm-4.5 8.5c0 .8284271-.6715729 1.5-1.5 1.5s-1.5-.6715729-1.5-1.5.6715729-1.5 1.5-1.5 1.5.6715729 1.5 1.5zm-7.5-8.5c.8284271 0 1.5.6715729 1.5 1.5s-.6715729 1.5-1.5 1.5-1.5-.6715729-1.5-1.5.6715729-1.5 1.5-1.5z" />
			<path id="Shape" d="m17 33.051v-4.051h2c.5522847 0 1-.4477153 1-1s-.4477153-1-1-1h-6c-.5522847 0-1 .4477153-1 1s.4477153 1 1 1h2v4.051c-3.0128377.2124716-5.87481435 1.3991705-8.154 3.381l-1.432-1.432 1.293-1.293c.37897221-.3923789.37355237-1.0160848-.01218142-1.4018186-.3857338-.3857338-1.00943969-.3911536-1.40181858-.0121814l-4 4c-.25995658.2510745-.3642126.6228779-.27269716.9725073.09151544.3496295.3645604.6226744.71418984.7141899.34962943.0915154.72143285-.0127406.97250732-.2726972l1.293-1.293 1.432 1.432c-4.2484933 4.9040211-4.56818368 12.085429-.77225076 17.3475589 3.79593293 5.2621299 10.71148406 7.2242651 16.70534976 4.7397746 5.9938656-2.4844904 9.4933307-8.7637075 8.4533809-15.1682076-1.0399498-6.4045002-6.3464447-11.2538232-12.8184799-11.7141259zm-1 25.949c-6.627417 0-12-5.372583-12-12s5.372583-12 12-12 12 5.372583 12 12c-.0071648 6.624447-5.375553 11.9928352-12 12z" />
			<path id="Shape" d="m25 46h-5.142c-.503567-1.9503067-2.3787867-3.2219252-4.3770005-2.9681188s-3.4959828 1.9538507-3.4959828 3.9681188 1.497769 3.7143124 3.4959828 3.9681188 3.8734335-1.0178121 4.3770005-2.9681188h5.142c.5522847 0 1-.4477153 1-1s-.4477153-1-1-1zm-9 3c-1.1045695 0-2-.8954305-2-2s.8954305-2 2-2 2 .8954305 2 2-.8954305 2-2 2z" />
			<path id="Shape" d="m24.632 49.741c-.5042422-.2245464-1.0950594.0019336-1.32.506-1.6190298 3.6456487-5.6763334 5.5415422-9.5115097 4.4445306-3.83517632-1.0970115-6.27619596-4.8516817-5.72246608-8.8020481.55372987-3.9503664 3.93298948-6.8891977 7.92197578-6.8894825.5522847 0 1-.4477153 1-1s-.4477153-1-1-1c-4.9858529.0000788-9.20993166 3.6728381-9.90280959 8.6103121s2.35715449 9.6310126 7.15040889 11.0033979 9.8651473-.9957164 11.8904007-5.55171c.1081499-.2422662.1155935-.5175799.0206922-.7653359-.0949012-.247756-.2843678-.4476447-.5266922-.5556641z" />
			<path id="Shape" d="m47 46c-.5522847 0-1 .4477153-1 1v2h-2c-.5522847 0-1 .4477153-1 1s.4477153 1 1 1h3c.5522847 0 1-.4477153 1-1v-3c0-.5522847-.4477153-1-1-1z" />
			<path id="Shape" d="m47 37h-14c-.5522847 0-1 .4477153-1 1s.4477153 1 1 1h14c.5522847 0 1-.4477153 1-1s-.4477153-1-1-1z" />
			<path id="Shape" d="m47 41h-14c-.5522847 0-1 .4477153-1 1s.4477153 1 1 1h14c.5522847 0 1-.4477153 1-1s-.4477153-1-1-1z" />
			<path id="Shape" d="m33 45c-.5522847 0-1 .4477153-1 1s.4477153 1 1 1h7c.5522847 0 1-.4477153 1-1s-.4477153-1-1-1z" />
		</g>
	</g>
</svg>
