<svg id="Capa_1" enable-background="new 0 0 512 512" height="512" viewBox="0 0 512 512" width="512" xmlns="http://www.w3.org/2000/svg">
	<g fill="#ffc451">
		<path d="m277.916 125.673c2.621 4.837 7.682 7.85 13.184 7.85h47.486c8.282 0 14.995-6.714 14.995-14.995s-6.714-14.995-14.995-14.995h-19.817l31.275-48c3.003-4.61 3.241-10.494.619-15.331-2.621-4.837-7.682-7.85-13.184-7.85h-44.92c-8.282 0-14.995 6.714-14.995 14.995s6.714 14.995 14.995 14.995h17.252l-31.275 48c-3.004 4.61-3.241 10.494-.62 15.331z" />
		<path d="m194.419 174.306h37.193c8.282 0 14.995-6.714 14.995-14.995s-6.714-14.995-14.995-14.995h-9.524l21.222-32.571c3.004-4.61 3.242-10.494.62-15.331-2.621-4.837-7.682-7.85-13.184-7.85h-35.184c-8.282 0-14.995 6.714-14.995 14.995s6.714 14.995 14.995 14.995h7.515l-21.223 32.571c-6.49 9.962.68 23.181 12.565 23.181z" />
		<path d="m339.883 246.12c7.665-18.043 12.427-37.638 13.671-58.221.424-7.017-4.083-13.387-10.841-15.322-6.758-1.937-13.953 1.086-17.306 7.263-16.72 30.809-48.85 49.948-83.851 49.948-52.57 0-95.338-42.772-95.338-95.346 0-49.666 37.235-90.484 86.612-94.948 7.01-.634 12.635-6.058 13.525-13.04.889-6.982-3.197-13.643-9.824-16.014-115.116-41.185-236.51 44.655-236.51 166.642 0 126.374 129.576 212.466 246.072 162.842-24.274 86.347 41.004 172.076 130.427 172.076 74.692 0 135.459-60.767 135.459-135.459 0-89.43-85.741-154.712-172.096-130.421zm-162.935 77.899c-81.021 0-146.937-65.916-146.937-146.937 0-79.325 63.187-144.169 141.872-146.85-33.554 22.477-55.658 60.803-55.658 104.211 0 99.483 110.859 159.11 193.813 104.981-23.323 49.642-74.138 84.595-133.09 84.595zm199.572 157.99c-58.155 0-105.468-47.313-105.468-105.468 0-57.981 47.177-105.468 105.468-105.468 58.155 0 105.468 47.313 105.468 105.468s-47.313 105.468-105.468 105.468z" />
		<path d="m410.899 325.213-34.362 30.982-15.704-14.649c-6.057-5.651-15.545-5.32-21.194.737-5.649 6.056-5.319 15.544.737 21.194l25.76 24.03c5.688 5.306 14.492 5.382 20.27.172l44.575-40.191c6.151-5.546 6.642-15.028 1.095-21.179-5.544-6.151-15.027-6.643-21.177-1.096z" />
	</g>
</svg>
