<svg id="Capa_1" enable-background="new 0 0 512 512" height="512" viewBox="0 0 512 512" width="512" xmlns="http://www.w3.org/2000/svg">
	<g fill="#ffc451">
		<g>
			<path d="m214.854 94.825h-102.186c-4.143 0-7.5 3.357-7.5 7.5s3.357 7.5 7.5 7.5h102.187c4.143 0 7.5-3.357 7.5-7.5s-3.358-7.5-7.501-7.5z" />
			<path d="m214.854 135.928h-31.023c-4.143 0-7.5 3.357-7.5 7.5s3.357 7.5 7.5 7.5h31.023c4.143 0 7.5-3.357 7.5-7.5s-3.357-7.5-7.5-7.5z" />
			<path d="m112.668 135.928c-4.143 0-7.5 3.357-7.5 7.5s3.357 7.5 7.5 7.5h31.052c4.143 0 7.5-3.357 7.5-7.5s-3.357-7.5-7.5-7.5z" />
			<path d="m430.218 115.44c-43.882-43.875-102.221-68.038-164.27-68.038h-72.708c-4.143 0-7.5 3.357-7.5 7.5s3.357 7.5 7.5 7.5h65.208v121.155h-159.85c-4.143 0-7.5 3.357-7.5 7.5v39.142l-60.318-99.813c-1.379-2.407-2.05-4.745-2.05-7.145 0-2.347.689-4.74 2.05-7.115l60.318-99.814v38.589c0 4.143 3.357 7.5 7.5 7.5h60.793c4.143 0 7.5-3.357 7.5-7.5s-3.357-7.5-7.5-7.5h-53.293v-31.244c0-6.539-2.83-11.807-7.764-14.452-4.794-2.572-10.939-2.21-15.655.923-.921.612-1.696 1.421-2.269 2.368l-62.511 103.443c-.026.043-.052.086-.076.129-2.716 4.704-4.093 9.642-4.093 14.674 0 5.052 1.377 9.999 4.093 14.703.024.043.05.086.076.129l62.512 103.442c.572.947 1.347 1.756 2.268 2.367 2.623 1.743 5.688 2.629 8.719 2.629 2.415 0 4.809-.563 6.937-1.704 4.935-2.646 7.765-7.913 7.765-14.453v-31.797h159.85c44.741 0 81.141 36.4 81.141 81.144s-36.4 81.144-81.141 81.144-81.142-36.4-81.142-81.144c0-4.143-3.357-7.5-7.5-7.5h-136.153c-4.143 0-7.5 3.357-7.5 7.5 0 31.352 6.138 61.775 18.244 90.427 1.611 3.816 6.012 5.605 9.827 3.989 3.815-1.611 5.602-6.012 3.989-9.827-10.354-24.505-16.039-50.402-16.935-77.089h121.316c2.156 27.815 16.202 52.349 37.048 68.513l-65.932 102.124c-23.888-16.772-44.538-38.51-60.492-64.439-2.172-3.527-6.791-4.627-10.318-2.457-3.527 2.171-4.628 6.79-2.457 10.318 20.424 33.193 49.098 60.952 82.92 80.277 34.883 19.928 74.678 30.462 115.083 30.462 62.049 0 120.388-24.163 164.27-68.038 43.884-43.877 68.052-102.213 68.052-164.261s-24.168-120.384-68.052-164.261zm-156.77 68.415v-121.314c97.001 3.307 178.079 70.482 202.381 160.694l-118.209 27.463c-11.603-36.598-44.56-63.771-84.172-66.843zm-7.5 313.145c-40.449 0-78.968-10.953-112.175-30.963l65.905-102.082c13.735 7.573 29.507 11.89 46.27 11.89 16.234 0 31.538-4.051 44.964-11.186l67 101.216c-32.72 19.748-71.037 31.125-111.964 31.125zm124.53-39.317-66.904-101.071c23.37-17.556 38.515-45.497 38.515-76.911 0-4.889-.367-9.697-1.075-14.392l118.21-27.464c2.654 13.547 4.046 27.544 4.046 41.856 0 73.534-36.726 138.644-92.792 177.982z" />
			<path d="m129.214 387.992c4.143 0 7.5-3.357 7.5-7.5v-48.007c0-4.143-3.357-7.5-7.5-7.5h-10.254c-4.143 0-7.5 3.357-7.5 7.5s3.357 7.5 7.5 7.5h2.754v40.507c0 4.143 3.357 7.5 7.5 7.5z" />
			<path d="m284.972 445.934c-.032 0-.063 0-.096.001-3.351.041-6.857.073-10.111.091 2.372-3.23 5.336-7.345 8.994-12.577 3.256-4.686 5.299-8.942 6.244-13.012.059-.253.104-.508.137-.766l.233-1.864c.038-.309.058-.62.058-.932 0-10.897-8.866-19.764-19.764-19.764-9.441 0-17.608 6.714-19.42 15.963-.796 4.065 1.855 8.006 5.919 8.802 4.076.8 8.007-1.854 8.802-5.919.437-2.229 2.412-3.846 4.699-3.846 2.506 0 4.565 1.944 4.75 4.403l-.106.854c-.405 1.518-1.411 3.981-3.858 7.503-7.605 10.879-12.119 16.784-14.544 19.956-3.104 4.059-4.976 6.508-3.758 10.526.73 2.408 2.537 4.264 4.951 5.088 1.021.35 1.789.613 11.58.613 3.685 0 8.647-.038 15.382-.122 4.142-.052 7.457-3.451 7.405-7.593-.051-4.108-3.399-7.405-7.497-7.405z" />
			<path d="m360.46 177.708c-.035 4.143 3.294 7.528 7.436 7.564h.065c4.112 0 7.464-3.315 7.499-7.436.016-1.866.037-4.494.061-7.571 3.681-.479 6.522-3.626 6.522-7.437 0-3.776-2.792-6.901-6.425-7.424.063-11.799.084-23.628-.07-25.414-.413-4.766-3.342-8.664-7.461-9.931-4.111-1.26-8.423.27-11.52 4.075-2.917 3.557-15.239 25.711-20.401 35.071-1.281 2.323-1.24 5.15.109 7.436 1.349 2.284 3.805 3.687 6.458 3.687h17.786c-.019 2.603-.039 5.093-.059 7.38zm-4.97-22.379c1.804-3.211 3.56-6.311 5.166-9.119-.009 2.854-.022 5.944-.04 9.119z" />
			<path d="m402.012 304.186c-9.393 0-17.557 6.697-19.412 15.926-.817 4.061 1.812 8.015 5.874 8.831 4.058.817 8.015-1.812 8.831-5.874.453-2.25 2.433-3.883 4.707-3.883 2.643 0 4.793 2.15 4.793 4.793 0 2.627-2.15 4.764-4.793 4.764-4.143 0-7.5 3.357-7.5 7.5s3.357 7.5 7.5 7.5c2.643 0 4.793 2.15 4.793 4.793 0 2.627-2.15 4.764-4.793 4.764-2.37 0-4.397-1.758-4.716-4.089-.007-.054-.015-.107-.023-.161-.009-.058-.024-.201-.024-.514 0-4.143-3.357-7.5-7.5-7.5s-7.5 3.357-7.5 7.5c0 1.02.062 1.906.197 2.781 1.361 9.688 9.759 16.982 19.566 16.982 10.914 0 19.793-8.866 19.793-19.764 0-4.643-1.618-8.908-4.304-12.288 2.687-3.374 4.304-7.633 4.304-12.269 0-10.913-8.879-19.792-19.793-19.792z" />
		</g>
	</g>
</svg>
